<svg xmlns="http://www.w3.org/2000/svg" viewBox="0 0 24 24" id="AddUser">
  <path d="M20 6h-1V5a.5.5 0 0 0-1 0v1h-1a.5.5 0 0 0 0 1h1v1a.5.5 0 0 0 1 0V7h1a.5.5 0 0 0 0-1Z" fill="#505095" class="color000000 svgShape"></path>
  <path d="M18.5 2.5a3.99 3.99 0 0 0-3.406 1.931A8.256 8.256 0 0 0 12.5 4a8.5 8.5 0 1 0 8.5 8.5 8.256 8.256 0 0 0-.431-2.594A3.989 3.989 0 0 0 18.5 2.5Zm-6 6.5a3 3 0 1 1-3 3 3 3 0 0 1 3-3Zm0 11a7.464 7.464 0 0 1-4.723-1.681 5.94 5.94 0 0 1 9.428.014A7.467 7.467 0 0 1 12.5 20Zm6-10.5a3 3 0 1 1 3-3 3 3 0 0 1-3 3Z" fill="#505095" class="color000000 svgShape"></path>
</svg>
