<svg xmlns="http://www.w3.org/2000/svg" viewBox="0 0 32 32" id="Check">
  <g fill="#000000" class="color000000 svgShape">
    <path fill="#505095" d="M14.33,20.83a1.47,1.47,0,0,1-1.06-.44L9.94,17.06a1.5,1.5,0,0,1,2.12-2.12l2.27,2.27,5.61-5.6a1.5,1.5,0,0,1,2.12,2.12l-6.67,6.66A1.46,1.46,0,0,1,14.33,20.83Z" class="color3939aa svgShape"></path>
    <path fill="#505095" d="M16,29.5A13.5,13.5,0,1,1,29.5,16,13.52,13.52,0,0,1,16,29.5Zm0-24A10.5,10.5,0,1,0,26.5,16,10.51,10.51,0,0,0,16,5.5Z" class="color3939aa svgShape"></path>
  </g>
</svg>
