<svg xmlns="http://www.w3.org/2000/svg" fill-rule="evenodd" stroke-linejoin="round" stroke-miterlimit="2" clip-rule="evenodd" viewBox="0 0 64 64" id="Copy">
  <g transform="translate(-1688 -8)" fill="#505095" class="color000000 svgShape">
    <path d="M15.294,9.565C13.984,9.565 12.727,10.335 11.8,11.705C10.874,13.074 10.353,14.932 10.353,16.87C10.353,27.469 10.353,52.531 10.353,63.13C10.353,65.068 10.874,66.926 11.8,68.295C12.727,69.665 13.984,70.435 15.294,70.435C20.682,70.435 31.318,70.435 36.706,70.435C38.016,70.435 39.273,69.665 40.2,68.295C41.126,66.926 41.647,65.068 41.647,63.13C41.647,61.787 40.909,60.696 40,60.696C39.091,60.696 38.353,61.787 38.353,63.13C38.353,63.776 38.179,64.395 37.871,64.852C37.562,65.309 37.143,65.565 36.706,65.565L15.294,65.565C14.857,65.565 14.438,65.309 14.129,64.852C13.821,64.395 13.647,63.776 13.647,63.13L13.647,16.87C13.647,16.224 13.821,15.605 14.129,15.148C14.438,14.691 14.857,14.435 15.294,14.435C16.203,14.435 16.941,13.344 16.941,12C16.941,10.656 16.203,9.565 15.294,9.565Z" transform="matrix(1.21429 0 0 .82143 1683.43 12.143)" fill="#505095" class="color000000 svgShape"></path>
    <path d="M1744,16C1744,14.409 1743.37,12.883 1742.24,11.757C1741.12,10.632 1739.59,10 1738,10C1731.46,10 1718.54,10 1712,10C1710.41,10 1708.88,10.632 1707.76,11.757C1706.63,12.883 1706,14.409 1706,16C1706,24.707 1706,45.293 1706,54C1706,55.591 1706.63,57.117 1707.76,58.243C1708.88,59.368 1710.41,60 1712,60C1718.54,60 1731.46,60 1738,60C1739.59,60 1741.12,59.368 1742.24,58.243C1743.37,57.117 1744,55.591 1744,54L1744,16Z" fill="#505095" class="color000000 svgShape"></path>
  </g>
</svg>
