<svg width="196" height="181" viewBox="0 0 196 181" fill="none" xmlns="http://www.w3.org/2000/svg">
<g filter="url(#filter0_d_2_24)">
<rect x="193.812" y="91.6875" width="35" height="118" rx="17.5" transform="rotate(90 193.812 91.6875)" fill="#9B9BE8"/>
<path d="M115.719 56.2094C115.356 58.7316 115.713 61.2495 116.745 63.4449C117.777 65.6402 119.438 67.4143 121.518 68.5428C123.598 69.6713 126.003 70.1036 128.429 69.7849C130.855 69.4663 133.194 68.411 135.149 66.7525L131.229 61.5622C130.326 62.3286 129.245 62.8163 128.124 62.9635C127.003 63.1108 125.891 62.911 124.93 62.3895C123.969 61.868 123.202 61.0482 122.725 60.0337C122.248 59.0193 122.083 57.8557 122.251 56.6902L115.719 56.2094Z" fill="#5959B1"/>
<path d="M69.2974 43.1723C69.1778 47.2402 70.478 51.223 72.9748 54.4368C75.4716 57.6506 79.0092 59.8951 82.9805 60.7849C86.9518 61.6748 91.1089 61.1545 94.7384 59.3134C98.3679 57.4722 101.243 54.4251 102.871 50.6951L91.4566 45.7141C90.9858 46.793 90.1541 47.6743 89.1044 48.2068C88.0546 48.7394 86.8522 48.8899 85.7035 48.6325C84.5549 48.3751 83.5316 47.7259 82.8095 46.7963C82.0873 45.8668 81.7112 44.7148 81.7458 43.5382L69.2974 43.1723Z" fill="#414187"/>
<rect x="118.944" width="35" height="130" rx="17.5" transform="rotate(31 118.944 0)" fill="#414187"/>
<rect x="177.735" y="34.6875" width="35" height="120" rx="17.5" transform="rotate(60 177.735 34.6875)" fill="#5959B1"/>
<path d="M36.6018 108.68C38.7008 109.234 40.8883 109.369 43.0395 109.078C45.1907 108.787 47.2635 108.074 49.1395 106.982C51.0154 105.89 52.6579 104.439 53.973 102.711C55.2882 100.984 56.2502 99.015 56.8043 96.9161L47.8682 94.5571C47.6239 95.4825 47.1997 96.3508 46.6198 97.1122C46.04 97.8737 45.3158 98.5136 44.4887 98.9952C43.6616 99.4768 42.7477 99.7908 41.7992 99.9193C40.8508 100.048 39.8863 99.9881 38.9609 99.7438L36.6018 108.68Z" fill="#5A0BF8"/>
<path d="M141.406 97.1393C141.719 95.1283 142.584 93.2003 143.904 91.5734C145.223 89.9465 146.944 88.6857 148.872 87.9338L149.904 91.1453C148.594 91.6564 147.424 92.5133 146.527 93.619C145.631 94.7246 145.042 96.035 144.83 97.4018L141.406 97.1393Z" fill="#5959B1"/>
<path d="M139.26 130.468C139.887 128.689 140.978 127.066 142.425 125.76C143.871 124.455 145.623 123.512 147.507 123.025L148.266 126.578C147.037 126.895 145.895 127.51 144.952 128.361C144.009 129.212 143.298 130.271 142.889 131.431L139.26 130.468Z" fill="#9B9BE8"/>
<g filter="url(#filter1_d_2_24)">
<circle cx="97.8119" cy="109.688" r="50" fill="#5A0BF8"/>
<circle cx="97.8119" cy="109.688" r="49.95" stroke="black" stroke-opacity="0.01" stroke-width="0.1"/>
</g>
<rect x="47.8119" y="5.6875" width="35" height="132" rx="17.5" fill="#5A0BF8"/>
<rect y="120.419" width="35.0111" height="100.017" rx="17.5056" transform="rotate(-65.7445 0 120.419)" fill="#5A0BF8"/>
<rect x="89.3095" y="89" width="5" height="11" rx="2.5" fill="white" stroke="white"/>
<rect x="118.875" y="94.0893" width="1.90866" height="9.57139" rx="0.954331" transform="rotate(120 118.875 94.0893)" fill="white" stroke="white" stroke-width="1.90866"/>
<rect x="1.26413" y="0.309279" width="1.84048" height="9.71814" rx="0.920241" transform="matrix(0.518807 0.854891 0.854891 -0.518807 108.7 97.3314)" fill="white" stroke="white" stroke-width="1.84048"/>
<path d="M119.439 112.688C123.124 112.688 118.41 122.422 115.201 125.61C111.993 128.798 107.641 130.589 103.104 130.589C98.5661 130.589 94.2145 128.798 91.006 125.61C87.7975 122.422 81.9644 112.687 86.4389 112.688L102.939 113.188L119.439 112.688Z" fill="white" stroke="white" stroke-width="2"/>
</g>
<defs>
<filter id="filter0_d_2_24" x="5.64173" y="5.6875" width="188.17" height="154" filterUnits="userSpaceOnUse" color-interpolation-filters="sRGB">
<feFlood flood-opacity="0" result="BackgroundImageFix"/>
<feColorMatrix in="SourceAlpha" type="matrix" values="0 0 0 0 0 0 0 0 0 0 0 0 0 0 0 0 0 0 127 0" result="hardAlpha"/>
<feOffset/>
<feComposite in2="hardAlpha" operator="out"/>
<feColorMatrix type="matrix" values="0 0 0 0 0 0 0 0 0 0 0 0 0 0 0 0 0 0 0.01 0"/>
<feBlend mode="normal" in2="BackgroundImageFix" result="effect1_dropShadow_2_24"/>
<feBlend mode="normal" in="SourceGraphic" in2="effect1_dropShadow_2_24" result="shape"/>
</filter>
<filter id="filter1_d_2_24" x="22.8119" y="35.6875" width="150" height="150" filterUnits="userSpaceOnUse" color-interpolation-filters="sRGB">
<feFlood flood-opacity="0" result="BackgroundImageFix"/>
<feColorMatrix in="SourceAlpha" type="matrix" values="0 0 0 0 0 0 0 0 0 0 0 0 0 0 0 0 0 0 127 0" result="hardAlpha"/>
<feOffset dy="1"/>
<feGaussianBlur stdDeviation="12.5"/>
<feComposite in2="hardAlpha" operator="out"/>
<feColorMatrix type="matrix" values="0 0 0 0 0 0 0 0 0 0 0 0 0 0 0 0 0 0 0.1 0"/>
<feBlend mode="normal" in2="BackgroundImageFix" result="effect1_dropShadow_2_24"/>
<feBlend mode="normal" in="SourceGraphic" in2="effect1_dropShadow_2_24" result="shape"/>
</filter>
</defs>
</svg>
