<svg width="188" height="162" viewBox="0 0 188 162" fill="none" xmlns="http://www.w3.org/2000/svg">
<rect x="186.502" y="91.6875" width="35" height="118" rx="17.5" transform="rotate(90 186.502 91.6875)" fill="#C0C0F2"/>
<path d="M108.41 56.2094C108.046 58.7316 108.403 61.2495 109.436 63.4449C110.468 65.6402 112.129 67.4143 114.209 68.5428C116.288 69.6713 118.693 70.1036 121.12 69.7849C123.546 69.4663 125.884 68.411 127.839 66.7525L123.92 61.5622C123.016 62.3286 121.936 62.8163 120.814 62.9635C119.693 63.1108 118.582 62.911 117.621 62.3895C116.66 61.868 115.892 61.0482 115.415 60.0337C114.938 59.0193 114.773 57.8557 114.941 56.6902L108.41 56.2094Z" fill="#7373AA"/>
<path d="M61.9879 43.1723C61.8683 47.2403 63.1685 51.223 65.6653 54.4369C68.1621 57.6507 71.6997 59.8952 75.671 60.785C79.6423 61.6748 83.7994 61.1545 87.4289 59.3134C91.0583 57.4723 93.9337 54.4252 95.5614 50.6951L84.1471 45.7141C83.6763 46.793 82.8446 47.6744 81.7948 48.2069C80.7451 48.7394 79.5426 48.8899 78.394 48.6325C77.2453 48.3752 76.2221 47.726 75.4999 46.7964C74.7778 45.8668 74.4017 44.7149 74.4363 43.5382L61.9879 43.1723Z" fill="#505095"/>
<rect x="111.635" width="35" height="130" rx="17.5" transform="rotate(31 111.635 0)" fill="#505095"/>
<rect x="170.425" y="34.6875" width="35" height="120" rx="17.5" transform="rotate(60 170.425 34.6875)" fill="#7373AA"/>
<path d="M29.2923 108.68C31.3913 109.234 33.5788 109.369 35.73 109.078C37.8812 108.787 39.954 108.074 41.8299 106.982C43.7059 105.89 45.3484 104.439 46.6635 102.711C47.9786 100.984 48.9407 99.015 49.4948 96.9161L40.5587 94.5571C40.3144 95.4825 39.8902 96.3508 39.3103 97.1122C38.7305 97.8737 38.0063 98.5136 37.1792 98.9952C36.3521 99.4768 35.4382 99.7908 34.4897 99.9193C33.5413 100.048 32.5768 99.9881 31.6514 99.7438L29.2923 108.68Z" fill="#3D3DBA"/>
<path d="M134.096 97.1393C134.41 95.1283 135.275 93.2003 136.594 91.5734C137.914 89.9465 139.635 88.6857 141.563 87.9338L142.594 91.1453C141.284 91.6564 140.115 92.5133 139.218 93.619C138.321 94.7246 137.733 96.035 137.52 97.4018L134.096 97.1393Z" fill="#7373AA"/>
<path d="M131.95 130.468C132.578 128.689 133.669 127.066 135.115 125.76C136.562 124.455 138.314 123.512 140.197 123.025L140.956 126.578C139.728 126.895 138.586 127.51 137.643 128.361C136.7 129.212 135.988 130.27 135.579 131.431L131.95 130.468Z" fill="#C0C0F1"/>
<circle cx="90.5024" cy="109.688" r="50" fill="#3D3DBA"/>
<rect x="40.5024" y="5.6875" width="35" height="132" rx="17.5" fill="#3D3DBA"/>
<rect y="123.713" width="35.0111" height="92" rx="17.5056" transform="rotate(-65.7445 0 123.713)" fill="#3D3DBA"/>
<rect x="83.5024" y="90.2539" width="5" height="10.2" rx="2.5" fill="white"/>
<rect x="110.825" y="94.6875" width="3.32518" height="10" rx="1.66259" transform="rotate(120 110.825 94.6875)" fill="white"/>
<rect width="3.2064" height="10.0684" rx="1.6032" transform="matrix(0.518807 0.854891 0.854891 -0.518807 100.527 98.3481)" fill="white"/>
<path d="M112.129 112.688C115.814 112.688 111.1 122.422 107.892 125.61C104.683 128.798 100.331 130.589 95.794 130.589C91.2566 130.589 86.9049 128.798 83.6965 125.61C80.488 122.422 74.6549 112.687 79.1294 112.688L95.6295 113.188L112.129 112.688Z" fill="white"/>
</svg>
